<?xml version="1.0" encoding="UTF-8"?>
<!DOCTYPE svg PUBLIC "-//W3C//DTD SVG 1.1//EN" "http://www.w3.org/Graphics/SVG/1.1/DTD/svg11.dtd">
<svg xmlns="http://www.w3.org/2000/svg" version="1.1" width="1080px" height="1080px" style="shape-rendering:geometricPrecision; text-rendering:geometricPrecision; image-rendering:optimizeQuality; fill-rule:evenodd; clip-rule:evenodd" xmlns:xlink="http://www.w3.org/1999/xlink">
<g><path style="opacity:0.982" fill="#656565" d="M 904.5,443.5 C 903.883,443.389 903.383,443.056 903,442.5C 899.676,447.313 898.676,452.647 900,458.5C 902.45,461.464 905.283,463.798 908.5,465.5C 912.407,469.768 916.074,474.435 919.5,479.5C 923.837,488.645 928.337,497.645 933,506.5C 936.47,514.76 937.97,523.426 937.5,532.5C 935.335,548.917 935.001,565.25 936.5,581.5C 937.451,582.919 937.784,584.585 937.5,586.5C 932.836,606.048 927.003,625.382 920,644.5C 912.836,654.48 906.336,664.814 900.5,675.5C 898.402,674.086 897.402,674.752 897.5,677.5C 896.5,677.5 895.5,677.5 894.5,677.5C 891.781,683.977 888.615,690.311 885,696.5C 881.541,699.447 878.707,702.78 876.5,706.5C 874.099,707.049 871.765,707.882 869.5,709C 868.663,710.011 868.33,711.178 868.5,712.5C 857.698,713.356 848.864,709.689 842,701.5C 839.145,695.029 836.145,688.695 833,682.5C 832.022,673.021 830.689,663.687 829,654.5C 828.617,653.944 828.117,653.611 827.5,653.5C 824.842,604.519 825.009,555.519 828,506.5C 830.405,495.791 832.905,485.124 835.5,474.5C 837.023,469.72 838.356,464.887 839.5,460C 839.344,456.183 838.178,452.683 836,449.5C 835.309,441.805 835.475,434.139 836.5,426.5C 839.716,418.131 840.55,409.464 839,400.5C 837.298,397.623 835.798,394.623 834.5,391.5C 833.643,390.575 832.643,389.908 831.5,389.5C 828.905,382.631 826.572,375.631 824.5,368.5C 821.054,362.345 817.888,356.012 815,349.5C 813.989,348.663 812.822,348.33 811.5,348.5C 811.321,344.791 809.654,342.124 806.5,340.5C 803.905,331.43 799.405,323.43 793,316.5C 790.924,309.749 787.924,303.416 784,297.5C 782.261,295.232 780.095,293.565 777.5,292.5C 775.118,287.752 771.784,283.752 767.5,280.5C 762.032,270.03 755.032,260.697 746.5,252.5C 746.297,250.956 745.63,249.622 744.5,248.5C 735.088,240.258 726.588,231.258 719,221.5C 718.036,217.532 715.869,214.365 712.5,212C 708.225,211.187 704.558,209.354 701.5,206.5C 699.998,204.825 698.665,202.992 697.5,201C 688.549,194.092 679.216,187.759 669.5,182C 668.207,181.51 666.873,181.343 665.5,181.5C 659.541,178.669 653.541,175.836 647.5,173C 643.002,168.084 637.336,165.251 630.5,164.5C 626.848,162.213 622.848,160.379 618.5,159C 599.715,153.03 580.381,150.197 560.5,150.5C 543.111,151.858 525.777,153.691 508.5,156C 495.412,160.229 482.412,164.562 469.5,169C 467.004,170.331 465.004,172.164 463.5,174.5C 463.167,174.5 462.833,174.5 462.5,174.5C 461.127,174.343 459.793,174.51 458.5,175C 449.854,180.302 441.187,185.635 432.5,191C 430.808,192.307 429.475,193.807 428.5,195.5C 425.031,198.072 421.364,200.406 417.5,202.5C 413.327,207.704 408.494,212.37 403,216.5C 402.536,217.094 402.369,217.761 402.5,218.5C 399.833,221.833 396.833,224.833 393.5,227.5C 388.928,230.563 384.761,234.23 381,238.5C 375.675,244.495 370.842,250.828 366.5,257.5C 364.983,257.511 363.816,258.177 363,259.5C 358.96,264.863 354.96,270.197 351,275.5C 350,276.167 349,276.833 348,277.5C 347.64,279.608 346.973,281.608 346,283.5C 342.083,288.93 337.916,294.264 333.5,299.5C 330.946,303.274 328.946,307.274 327.5,311.5C 323.82,314.618 321.32,318.618 320,323.5C 315.621,328.448 312.455,334.115 310.5,340.5C 303.632,353.803 296.465,367.136 289,380.5C 286.285,389.666 282.619,398.333 278,406.5C 276.917,414.76 277.917,422.76 281,430.5C 281.667,436.833 281.667,443.167 281,449.5C 276.762,456.374 276.428,463.374 280,470.5C 283.839,475.81 285.672,481.81 285.5,488.5C 286.557,495.899 287.724,503.233 289,510.5C 289.333,541.833 289.667,573.167 290,604.5C 290.383,605.056 290.883,605.389 291.5,605.5C 291.832,621.561 291.165,637.561 289.5,653.5C 287.57,670.452 282.736,686.452 275,701.5C 267.975,709.563 259.142,713.23 248.5,712.5C 248.649,711.448 248.483,710.448 248,709.5C 239.381,704.548 232.381,697.881 227,689.5C 223.747,682.589 220.58,675.589 217.5,668.5C 215.192,667.359 213.359,665.692 212,663.5C 208.19,655.676 203.523,648.343 198,641.5C 195.875,636.33 194.375,630.997 193.5,625.5C 190.589,617.049 188.423,608.382 187,599.5C 186.617,598.944 186.117,598.611 185.5,598.5C 183.773,593.251 181.939,587.917 180,582.5C 179.505,580.527 179.338,578.527 179.5,576.5C 177.949,556.8 178.282,537.133 180.5,517.5C 183.529,507.745 187.529,498.412 192.5,489.5C 194.085,488.467 195.419,487.134 196.5,485.5C 202.826,476.955 209.159,468.288 215.5,459.5C 215.5,459.167 215.5,458.833 215.5,458.5C 215.833,458.5 216.167,458.5 216.5,458.5C 217.251,419.661 218.084,380.661 219,341.5C 221.949,326.188 223.616,310.854 224,295.5C 223.722,294.584 223.222,293.918 222.5,293.5C 230.975,241.533 250.308,193.867 280.5,150.5C 303.709,120.116 331.709,95.2829 364.5,76C 396.34,59.0408 429.673,46.7075 464.5,39C 527.167,25 589.833,25 652.5,39C 698.455,48.2998 740.788,66.4665 779.5,93.5C 806.682,114.244 829.516,138.911 848,167.5C 861.363,189.82 872.363,213.153 881,237.5C 901.31,304.403 909.144,373.07 904.5,443.5 Z"/></g>
<g><path style="opacity:1" fill="#1d1d1d" d="M 560.5,150.5 C 572.089,151.408 583.756,152.908 595.5,155C 597.502,156.019 599.502,156.852 601.5,157.5C 587.289,155.464 572.956,153.798 558.5,152.5C 539.703,153.952 521.036,156.452 502.5,160C 494.096,163.184 485.43,165.85 476.5,168C 472.423,170.705 468.09,172.872 463.5,174.5C 465.004,172.164 467.004,170.331 469.5,169C 482.412,164.562 495.412,160.229 508.5,156C 525.777,153.691 543.111,151.858 560.5,150.5 Z"/></g>
<g><path style="opacity:0.984" fill="#000000" d="M 601.5,157.5 C 611.508,158.445 621.175,160.779 630.5,164.5C 637.336,165.251 643.002,168.084 647.5,173C 653.541,175.836 659.541,178.669 665.5,181.5C 677.495,189.826 689.495,198.159 701.5,206.5C 717.223,221.221 732.223,236.555 746.5,252.5C 755.032,260.697 762.032,270.03 767.5,280.5C 769.742,285.258 772.242,289.925 775,294.5C 777.068,298.07 779.901,300.737 783.5,302.5C 791.17,315.175 798.837,327.841 806.5,340.5C 807.891,345.614 810.557,349.947 814.5,353.5C 818.776,361.976 822.442,370.642 825.5,379.5C 827.526,382.897 829.526,386.23 831.5,389.5C 833.563,394.85 835.729,400.183 838,405.5C 838.55,412.613 838.05,419.613 836.5,426.5C 835.475,434.139 835.309,441.805 836,449.5C 838.178,452.683 839.344,456.183 839.5,460C 838.356,464.887 837.023,469.72 835.5,474.5C 832.583,483.419 829.75,492.419 827,501.5C 824.581,549.471 823.915,597.471 825,645.5C 825.943,648.251 826.776,650.917 827.5,653.5C 828.117,653.611 828.617,653.944 829,654.5C 830.689,663.687 832.022,673.021 833,682.5C 836.145,688.695 839.145,695.029 842,701.5C 848.864,709.689 857.698,713.356 868.5,712.5C 868.33,711.178 868.663,710.011 869.5,709C 871.765,707.882 874.099,707.049 876.5,706.5C 878.707,702.78 881.541,699.447 885,696.5C 888.615,690.311 891.781,683.977 894.5,677.5C 895.5,677.5 896.5,677.5 897.5,677.5C 897.402,674.752 898.402,674.086 900.5,675.5C 900.211,690.925 899.044,706.259 897,721.5C 896.311,722.357 895.478,723.023 894.5,723.5C 892.713,732.504 890.88,741.504 889,750.5C 885.791,755.964 883.791,761.964 883,768.5C 882,769.167 881,769.833 880,770.5C 879.734,775.069 878.734,779.403 877,783.5C 875.989,784.337 874.822,784.67 873.5,784.5C 872.624,791.442 870.958,798.109 868.5,804.5C 867.178,804.33 866.011,804.663 865,805.5C 863.422,809.661 862.255,813.994 861.5,818.5C 860.833,818.833 860.167,819.167 859.5,819.5C 858.23,823.142 857.064,826.808 856,830.5C 854.989,831.337 853.822,831.67 852.5,831.5C 851.536,839.433 848.369,846.433 843,852.5C 842.667,854.167 842.333,855.833 842,857.5C 840.989,858.337 839.822,858.67 838.5,858.5C 836.994,863.848 834.66,868.848 831.5,873.5C 828.232,874.487 824.898,874.82 821.5,874.5C 819.82,869.39 819.153,864.057 819.5,858.5C 818.167,858.5 816.833,858.5 815.5,858.5C 814.233,863.7 811.9,868.367 808.5,872.5C 807.158,874.005 805.492,874.672 803.5,874.5C 803.643,876.262 803.309,877.929 802.5,879.5C 799.803,883.267 796.97,886.934 794,890.5C 788.834,895.393 783.667,900.226 778.5,905C 774.693,906.205 771.359,908.205 768.5,911C 761.676,911.494 759.176,908.328 761,901.5C 761.419,900.328 762.085,899.328 763,898.5C 763.2,894.247 763.7,890.08 764.5,886C 762.865,885.46 761.532,885.96 760.5,887.5C 759.93,891.279 757.93,893.946 754.5,895.5C 753.516,899.148 751.182,901.148 747.5,901.5C 747.649,902.552 747.483,903.552 747,904.5C 742.759,906.899 738.926,909.899 735.5,913.5C 732.906,915.698 729.906,916.698 726.5,916.5C 726.762,917.978 726.429,919.311 725.5,920.5C 723.333,921.792 721,922.625 718.5,923C 712.472,928.685 705.472,932.852 697.5,935.5C 687.003,942.505 676.003,948.671 664.5,954C 657.534,958.796 650.201,962.963 642.5,966.5C 630.386,971.39 618.386,976.557 606.5,982C 596.388,984.975 586.054,987.642 575.5,990C 556.167,992 536.833,992 517.5,990C 509.096,987.97 500.763,985.97 492.5,984C 478.447,978.479 464.447,972.646 450.5,966.5C 437.256,958.54 423.589,951.54 409.5,945.5C 409.5,944.5 409.5,943.5 409.5,942.5C 401.411,939.281 393.411,935.781 385.5,932C 380.685,926.001 374.685,921.834 367.5,919.5C 366.614,918.675 366.281,917.675 366.5,916.5C 362.75,916.598 359.417,915.431 356.5,913C 353.591,909.923 350.258,907.423 346.5,905.5C 345.571,904.311 345.238,902.978 345.5,901.5C 342.475,901.769 339.808,900.936 337.5,899C 332.961,893.498 328.128,888.331 323,883.5C 322.501,888.823 322.334,894.156 322.5,899.5C 318.818,899.665 315.152,899.499 311.5,899C 310.663,897.989 310.33,896.822 310.5,895.5C 309.022,895.762 307.689,895.429 306.5,894.5C 301.449,889.785 296.783,884.785 292.5,879.5C 291.97,875.473 289.804,872.806 286,871.5C 281.255,864.768 277.755,857.435 275.5,849.5C 274.325,849.719 273.325,849.386 272.5,848.5C 267.471,836.624 262.304,824.624 257,812.5C 255.263,808.351 254.263,804.017 254,799.5C 253,798.833 252,798.167 251,797.5C 249.376,791.669 248.21,785.669 247.5,779.5C 246.522,779.023 245.689,778.357 245,777.5C 243.068,767.451 241.401,757.451 240,747.5C 238.989,746.663 237.822,746.33 236.5,746.5C 236.159,737.108 235.159,727.775 233.5,718.5C 232.833,718.167 232.167,717.833 231.5,717.5C 230.676,714.215 230.176,710.882 230,707.5C 229.51,708.793 229.343,710.127 229.5,711.5C 225.468,712.567 221.468,713.567 217.5,714.5C 217.67,715.822 217.337,716.989 216.5,718C 213.073,719.76 209.406,720.926 205.5,721.5C 205.167,722.167 204.833,722.833 204.5,723.5C 196.737,726.107 188.737,728.107 180.5,729.5C 180.167,730.167 179.833,730.833 179.5,731.5C 157.905,734.153 136.238,734.986 114.5,734C 112.315,726.882 114.982,723.049 122.5,722.5C 123.524,717.841 126.524,715.841 131.5,716.5C 131.323,714.019 132.323,712.186 134.5,711C 137.252,709.249 140.252,708.416 143.5,708.5C 143.081,705.675 144.081,703.509 146.5,702C 152.838,697.944 158.838,693.444 164.5,688.5C 165.702,684.372 168.369,682.039 172.5,681.5C 172.735,677.676 174.735,675.676 178.5,675.5C 178.905,673.35 179.405,671.35 180,669.5C 173.952,671.065 167.785,672.065 161.5,672.5C 161.762,673.978 161.429,675.311 160.5,676.5C 145.322,679.658 129.989,680.325 114.5,678.5C 114.167,677.667 113.833,676.833 113.5,676C 114.992,673.991 116.326,671.824 117.5,669.5C 121.382,666.701 125.048,663.701 128.5,660.5C 130.412,658.343 132.079,656.009 133.5,653.5C 134.689,652.571 136.022,652.238 137.5,652.5C 137.5,648.5 139.5,646.5 143.5,646.5C 143.713,641.015 146.046,636.682 150.5,633.5C 150.768,628.904 153.102,626.238 157.5,625.5C 158.433,621.532 159.433,617.532 160.5,613.5C 161.833,613.5 163.167,613.5 164.5,613.5C 164.003,609.838 165.169,606.838 168,604.5C 168.333,602.5 168.667,600.5 169,598.5C 172.48,594.575 174.313,589.908 174.5,584.5C 175.833,584.5 177.167,584.5 178.5,584.5C 178.194,581.615 178.527,578.948 179.5,576.5C 179.338,578.527 179.505,580.527 180,582.5C 181.939,587.917 183.773,593.251 185.5,598.5C 186.705,607.957 189.371,616.957 193.5,625.5C 194.375,630.997 195.875,636.33 198,641.5C 203.523,648.343 208.19,655.676 212,663.5C 213.359,665.692 215.192,667.359 217.5,668.5C 220.58,675.589 223.747,682.589 227,689.5C 232.381,697.881 239.381,704.548 248,709.5C 248.483,710.448 248.649,711.448 248.5,712.5C 259.142,713.23 267.975,709.563 275,701.5C 282.736,686.452 287.57,670.452 289.5,653.5C 290.429,650.325 291.262,646.991 292,643.5C 292.333,629.5 292.667,615.5 293,601.5C 293.198,603.382 293.698,605.048 294.5,606.5C 294.5,608.167 294.5,609.833 294.5,611.5C 295.918,618.268 297.585,624.935 299.5,631.5C 300.735,632.34 301.735,633.34 302.5,634.5C 303.857,635.59 304.857,636.924 305.5,638.5C 307.823,645.153 311.156,651.153 315.5,656.5C 315.369,657.239 315.536,657.906 316,658.5C 322.09,665.096 328.59,671.096 335.5,676.5C 338.46,679.645 341.793,682.312 345.5,684.5C 347.814,686.477 350.147,688.477 352.5,690.5C 355.391,691.678 358.391,692.345 361.5,692.5C 363.558,693.933 365.892,694.6 368.5,694.5C 370.176,696.834 372.509,697.834 375.5,697.5C 378.557,699.095 381.89,700.262 385.5,701C 396.833,701.667 408.167,701.667 419.5,701C 420.416,700.722 421.082,700.222 421.5,699.5C 424.247,699.813 426.914,699.48 429.5,698.5C 432.295,698.062 434.628,697.062 436.5,695.5C 442.151,694.097 447.485,692.097 452.5,689.5C 452.5,688.833 452.833,688.5 453.5,688.5C 457.752,686.892 461.752,684.892 465.5,682.5C 469.346,679.493 473.346,676.66 477.5,674C 480.777,671.234 483.443,668.067 485.5,664.5C 491.045,659.95 495.045,654.284 497.5,647.5C 499.184,643.204 501.184,639.204 503.5,635.5C 506.137,633.518 507.47,630.852 507.5,627.5C 508.618,620.793 509.951,614.126 511.5,607.5C 512.268,606.737 512.768,605.737 513,604.5C 513.667,598.5 513.667,592.5 513,586.5C 511.871,584.859 510.371,583.859 508.5,583.5C 508.389,582.883 508.056,582.383 507.5,582C 500.533,581.003 493.533,580.503 486.5,580.5C 485.737,579.732 484.737,579.232 483.5,579C 427.526,576.632 371.526,575.966 315.5,577C 310.47,577.448 305.47,578.114 300.5,579C 299.269,580.405 297.936,581.571 296.5,582.5C 295.518,583.141 294.518,583.807 293.5,584.5C 292.908,561.655 291.908,538.989 290.5,516.5C 290.666,511.489 290.499,506.489 290,501.5C 288.768,498.7 288.101,495.7 288,492.5C 287.066,491.142 286.232,489.808 285.5,488.5C 285.672,481.81 283.839,475.81 280,470.5C 276.428,463.374 276.762,456.374 281,449.5C 281.667,443.167 281.667,436.833 281,430.5C 277.917,422.76 276.917,414.76 278,406.5C 282.619,398.333 286.285,389.666 289,380.5C 296.465,367.136 303.632,353.803 310.5,340.5C 314.398,334.392 318.564,328.392 323,322.5C 324.651,318.898 326.151,315.231 327.5,311.5C 340.317,293.635 353.317,275.635 366.5,257.5C 371.163,252.669 375.663,247.669 380,242.5C 383.276,241.21 385.276,238.877 386,235.5C 388.705,232.964 391.205,230.297 393.5,227.5C 396.833,224.833 399.833,221.833 402.5,218.5C 411.318,211.515 419.985,204.349 428.5,197C 431.634,194.848 434.968,193.182 438.5,192C 443.89,188.642 448.89,184.809 453.5,180.5C 457.049,179.277 460.049,177.277 462.5,174.5C 462.833,174.5 463.167,174.5 463.5,174.5C 468.09,172.872 472.423,170.705 476.5,168C 485.43,165.85 494.096,163.184 502.5,160C 521.036,156.452 539.703,153.952 558.5,152.5C 572.956,153.798 587.289,155.464 601.5,157.5 Z"/></g>
<g><path style="opacity:1" fill="#383838" d="M 560.5,150.5 C 580.381,150.197 599.715,153.03 618.5,159C 622.848,160.379 626.848,162.213 630.5,164.5C 621.175,160.779 611.508,158.445 601.5,157.5C 599.502,156.852 597.502,156.019 595.5,155C 583.756,152.908 572.089,151.408 560.5,150.5 Z"/></g>
<g><path style="opacity:1" fill="#454545" d="M 462.5,174.5 C 460.049,177.277 457.049,179.277 453.5,180.5C 444.942,185.043 436.609,190.043 428.5,195.5C 429.475,193.807 430.808,192.307 432.5,191C 441.187,185.635 449.854,180.302 458.5,175C 459.793,174.51 461.127,174.343 462.5,174.5 Z"/></g>
<g><path style="opacity:1" fill="#404040" d="M 665.5,181.5 C 666.873,181.343 668.207,181.51 669.5,182C 679.216,187.759 688.549,194.092 697.5,201C 698.665,202.992 699.998,204.825 701.5,206.5C 689.495,198.159 677.495,189.826 665.5,181.5 Z"/></g>
<g><path style="opacity:1" fill="#2b2b2b" d="M 453.5,180.5 C 448.89,184.809 443.89,188.642 438.5,192C 434.968,193.182 431.634,194.848 428.5,197C 419.985,204.349 411.318,211.515 402.5,218.5C 402.369,217.761 402.536,217.094 403,216.5C 408.494,212.37 413.327,207.704 417.5,202.5C 421.364,200.406 425.031,198.072 428.5,195.5C 436.609,190.043 444.942,185.043 453.5,180.5 Z"/></g>
<g><path style="opacity:1" fill="#898989" d="M 310.5,198.5 C 311.586,198.62 312.253,199.287 312.5,200.5C 304.803,215.418 296.637,230.084 288,244.5C 287.338,246.813 286.838,249.146 286.5,251.5C 285.5,251.5 284.5,251.5 283.5,251.5C 281.638,259.592 277.805,266.592 272,272.5C 271.667,274.5 271.333,276.5 271,278.5C 266.838,285.489 262.671,292.489 258.5,299.5C 256.535,306.057 254.202,312.391 251.5,318.5C 249.856,318.714 248.356,318.38 247,317.5C 246.212,310.444 246.545,303.444 248,296.5C 249.667,290.5 251.333,284.5 253,278.5C 259.872,265.773 267.539,253.439 276,241.5C 277.11,239.963 278.61,239.297 280.5,239.5C 283.117,234.419 285.95,229.419 289,224.5C 296.416,215.929 303.583,207.262 310.5,198.5 Z"/></g>
<g><path style="opacity:1" fill="#8a8a8a" d="M 804.5,198.5 C 805.239,198.369 805.906,198.536 806.5,199C 813.425,207.915 820.925,216.082 829,223.5C 837.408,236.643 846.075,249.643 855,262.5C 857.322,271.228 860.989,279.228 866,286.5C 868.595,296.689 869.095,307.023 867.5,317.5C 847.994,280.158 827.828,243.158 807,206.5C 806.342,203.715 805.509,201.049 804.5,198.5 Z"/></g>
<g><path style="opacity:1" fill="#393939" d="M 701.5,206.5 C 704.558,209.354 708.225,211.187 712.5,212C 715.869,214.365 718.036,217.532 719,221.5C 726.588,231.258 735.088,240.258 744.5,248.5C 745.63,249.622 746.297,250.956 746.5,252.5C 732.223,236.555 717.223,221.221 701.5,206.5 Z"/></g>
<g><path style="opacity:1" fill="#2d2d2d" d="M 393.5,227.5 C 391.205,230.297 388.705,232.964 386,235.5C 385.276,238.877 383.276,241.21 380,242.5C 375.663,247.669 371.163,252.669 366.5,257.5C 370.842,250.828 375.675,244.495 381,238.5C 384.761,234.23 388.928,230.563 393.5,227.5 Z"/></g>
<g><path style="opacity:1" fill="#3d3d3d" d="M 366.5,257.5 C 353.317,275.635 340.317,293.635 327.5,311.5C 328.946,307.274 330.946,303.274 333.5,299.5C 337.916,294.264 342.083,288.93 346,283.5C 346.973,281.608 347.64,279.608 348,277.5C 349,276.833 350,276.167 351,275.5C 354.96,270.197 358.96,264.863 363,259.5C 363.816,258.177 364.983,257.511 366.5,257.5 Z"/></g>
<g><path style="opacity:1" fill="#232323" d="M 767.5,280.5 C 771.784,283.752 775.118,287.752 777.5,292.5C 779.5,295.833 781.5,299.167 783.5,302.5C 779.901,300.737 777.068,298.07 775,294.5C 772.242,289.925 769.742,285.258 767.5,280.5 Z"/></g>
<g><path style="opacity:1" fill="#4d4d4d" d="M 777.5,292.5 C 780.095,293.565 782.261,295.232 784,297.5C 787.924,303.416 790.924,309.749 793,316.5C 799.405,323.43 803.905,331.43 806.5,340.5C 798.837,327.841 791.17,315.175 783.5,302.5C 781.5,299.167 779.5,295.833 777.5,292.5 Z"/></g>
<g><path style="opacity:0.679" fill="#000000" d="M 217.5,318.5 C 213.117,365.112 212.45,411.778 215.5,458.5C 215.5,458.833 215.5,459.167 215.5,459.5C 209.91,465.94 204.41,472.606 199,479.5C 198.345,481.628 197.511,483.628 196.5,485.5C 195.419,487.134 194.085,488.467 192.5,489.5C 188.721,491.023 184.721,491.857 180.5,492C 179.833,493 179.167,494 178.5,495C 167.833,495.667 157.167,495.667 146.5,495C 144.381,489.689 146.048,486.523 151.5,485.5C 151.666,482.832 152.666,480.498 154.5,478.5C 159.847,473.597 165.014,468.597 170,463.5C 176.109,455.387 183.442,448.72 192,443.5C 192.402,442.128 192.902,440.795 193.5,439.5C 196.87,436.465 199.87,433.132 202.5,429.5C 203.332,421.521 203.832,413.521 204,405.5C 205,404.5 206,403.5 207,402.5C 207.502,385.137 208.502,367.803 210,350.5C 211.011,349.663 212.178,349.33 213.5,349.5C 213.334,344.156 213.501,338.823 214,333.5C 214.778,328.237 215.945,323.237 217.5,318.5 Z"/></g>
<g><path style="opacity:1" fill="#333333" d="M 327.5,311.5 C 326.151,315.231 324.651,318.898 323,322.5C 318.564,328.392 314.398,334.392 310.5,340.5C 312.455,334.115 315.621,328.448 320,323.5C 321.32,318.618 323.82,314.618 327.5,311.5 Z"/></g>
<g><path style="opacity:0.326" fill="#171717" d="M 218.5,316.5 C 219.069,319.449 219.402,322.449 219.5,325.5C 215.523,369.755 214.523,414.088 216.5,458.5C 216.167,458.5 215.833,458.5 215.5,458.5C 212.45,411.778 213.117,365.112 217.5,318.5C 217.328,317.508 217.662,316.842 218.5,316.5 Z"/></g>
<g><path style="opacity:1" fill="#4c4c4c" d="M 806.5,340.5 C 809.654,342.124 811.321,344.791 811.5,348.5C 812.822,348.33 813.989,348.663 815,349.5C 817.888,356.012 821.054,362.345 824.5,368.5C 826.572,375.631 828.905,382.631 831.5,389.5C 829.526,386.23 827.526,382.897 825.5,379.5C 822.442,370.642 818.776,361.976 814.5,353.5C 810.557,349.947 807.891,345.614 806.5,340.5 Z"/></g>
<g><path style="opacity:1" fill="#474747" d="M 222.5,293.5 C 223.222,293.918 223.722,294.584 224,295.5C 223.616,310.854 221.949,326.188 219,341.5C 218.084,380.661 217.251,419.661 216.5,458.5C 214.523,414.088 215.523,369.755 219.5,325.5C 219.402,322.449 219.069,319.449 218.5,316.5C 218.335,313.482 218.502,310.482 219,307.5C 219.844,302.624 221.011,297.957 222.5,293.5 Z"/></g>
<g><path style="opacity:1" fill="#313131" d="M 831.5,389.5 C 832.643,389.908 833.643,390.575 834.5,391.5C 835.798,394.623 837.298,397.623 839,400.5C 840.55,409.464 839.716,418.131 836.5,426.5C 838.05,419.613 838.55,412.613 838,405.5C 835.729,400.183 833.563,394.85 831.5,389.5 Z"/></g>
<g><path style="opacity:0.122" fill="#060606" d="M 904.5,447.5 C 905.914,452.43 907.248,457.43 908.5,462.5C 907.883,462.611 907.383,462.944 907,463.5C 905.823,461.824 904.323,460.491 902.5,459.5C 901.516,456.572 901.183,453.572 901.5,450.5C 902.5,450.5 903.5,450.5 904.5,450.5C 904.5,449.5 904.5,448.5 904.5,447.5 Z"/></g>
<g><path style="opacity:0.954" fill="#343434" d="M 904.5,443.5 C 904.5,444.833 904.5,446.167 904.5,447.5C 904.5,448.5 904.5,449.5 904.5,450.5C 903.5,450.5 902.5,450.5 901.5,450.5C 901.183,453.572 901.516,456.572 902.5,459.5C 904.323,460.491 905.823,461.824 907,463.5C 907.383,462.944 907.883,462.611 908.5,462.5C 908.5,463.5 908.5,464.5 908.5,465.5C 905.283,463.798 902.45,461.464 900,458.5C 898.676,452.647 899.676,447.313 903,442.5C 903.383,443.056 903.883,443.389 904.5,443.5 Z"/></g>
<g><path style="opacity:0.945" fill="#323232" d="M 215.5,459.5 C 209.159,468.288 202.826,476.955 196.5,485.5C 197.511,483.628 198.345,481.628 199,479.5C 204.41,472.606 209.91,465.94 215.5,459.5 Z"/></g>
<g><path style="opacity:1" fill="#8b8b8b" d="M 204.5,528.5 C 209.893,528.484 214.559,530.317 218.5,534C 219.793,534.49 221.127,534.657 222.5,534.5C 225.847,548.58 227.347,562.913 227,577.5C 228,582.5 229,587.5 230,592.5C 230.891,599.645 230.391,606.645 228.5,613.5C 227.178,613.33 226.011,613.663 225,614.5C 223.936,619.731 220.769,622.731 215.5,623.5C 213.307,623.674 211.473,623.007 210,621.5C 207.731,617.962 205.731,614.295 204,610.5C 200.86,597.346 198.193,584.012 196,570.5C 195.497,561.795 194.663,553.128 193.5,544.5C 196.567,540.275 200.067,536.275 204,532.5C 204.49,531.207 204.657,529.873 204.5,528.5 Z"/></g>
<g><path style="opacity:1" fill="#8b8b8b" d="M 905.5,528.5 C 907.5,528.5 909.5,528.5 911.5,528.5C 911.238,529.978 911.571,531.311 912.5,532.5C 915.498,535.283 918.664,537.95 922,540.5C 922.781,541.729 923.281,543.062 923.5,544.5C 921.342,566.734 917.842,588.734 913,610.5C 910.981,614.704 908.814,618.87 906.5,623C 898.496,625.296 893.662,622.463 892,614.5C 890.989,613.663 889.822,613.33 888.5,613.5C 886.745,601.573 887.578,589.907 891,578.5C 890.962,564.197 892.628,550.197 896,536.5C 899.226,533.675 902.393,531.009 905.5,528.5 Z"/></g>
<g><path style="opacity:0.503" fill="#010101" d="M 938.5,539.5 C 943.107,550.382 947.44,561.382 951.5,572.5C 952.495,577.792 952.828,583.125 952.5,588.5C 947.241,588.984 942.241,588.317 937.5,586.5C 937.784,584.585 937.451,582.919 936.5,581.5C 935.969,567.375 936.636,553.375 938.5,539.5 Z"/></g>
<g><path style="opacity:1" fill="#3c3c3c" d="M 937.5,532.5 C 938.468,534.607 938.802,536.941 938.5,539.5C 936.636,553.375 935.969,567.375 936.5,581.5C 935.001,565.25 935.335,548.917 937.5,532.5 Z"/></g>
<g><path style="opacity:1" fill="#505050" d="M 285.5,488.5 C 286.232,489.808 287.066,491.142 288,492.5C 288.101,495.7 288.768,498.7 290,501.5C 290.499,506.489 290.666,511.489 290.5,516.5C 291.307,546.159 291.64,575.826 291.5,605.5C 290.883,605.389 290.383,605.056 290,604.5C 289.667,573.167 289.333,541.833 289,510.5C 287.724,503.233 286.557,495.899 285.5,488.5 Z"/></g>
<g><path style="opacity:1" fill="#1a1a1a" d="M 752.5,576.5 C 717.142,576.148 681.809,576.815 646.5,578.5C 678.241,574.717 710.241,573.55 742.5,575C 746.025,575.179 749.359,575.679 752.5,576.5 Z"/></g>
<g><path style="opacity:1" fill="#a7a7a7" d="M 695.5,578.5 C 719.328,577.502 743.328,577.169 767.5,577.5C 773.31,578.49 779.31,578.823 785.5,578.5C 787.629,579.203 789.629,580.203 791.5,581.5C 778.555,579.919 765.555,579.252 752.5,579.5C 733.674,578.503 714.674,578.17 695.5,578.5 Z"/></g>
<g><path style="opacity:1" fill="#999999" d="M 325.5,578.5 C 317.807,579.264 310.141,580.264 302.5,581.5C 301.833,581.5 301.167,581.5 300.5,581.5C 300.611,580.883 300.944,580.383 301.5,580C 309.447,578.725 317.447,578.225 325.5,578.5 Z"/></g>
<g><path style="opacity:1" fill="#2e2e2e" d="M 631.5,578.5 C 622.712,580.03 613.712,580.697 604.5,580.5C 604.918,579.778 605.584,579.278 606.5,579C 614.827,578.5 623.16,578.334 631.5,578.5 Z"/></g>
<g><path style="opacity:1" fill="#7c7c7c" d="M 752.5,576.5 C 757.695,576.179 762.695,576.513 767.5,577.5C 743.328,577.169 719.328,577.502 695.5,578.5C 673.967,578.563 652.634,579.563 631.5,581.5C 618.623,581.11 605.956,581.777 593.5,583.5C 584.656,582.679 580.323,586.679 580.5,595.5C 579.366,593.034 579.199,590.367 580,587.5C 581.707,585.963 583.207,584.296 584.5,582.5C 590.947,581.064 597.614,580.397 604.5,580.5C 613.712,580.697 622.712,580.03 631.5,578.5C 636.5,578.5 641.5,578.5 646.5,578.5C 681.809,576.815 717.142,576.148 752.5,576.5 Z"/></g>
<g><path style="opacity:1" fill="#4b4b4b" d="M 486.5,580.5 C 478.16,580.309 469.826,579.976 461.5,579.5C 452.833,579.5 444.167,579.5 435.5,579.5C 430.684,578.674 425.684,578.174 420.5,578C 388.664,577.169 356.997,577.336 325.5,578.5C 317.447,578.225 309.447,578.725 301.5,580C 300.944,580.383 300.611,580.883 300.5,581.5C 299.833,581.5 299.5,581.833 299.5,582.5C 298.391,582.557 297.391,582.89 296.5,583.5C 296.5,583.167 296.5,582.833 296.5,582.5C 297.936,581.571 299.269,580.405 300.5,579C 305.47,578.114 310.47,577.448 315.5,577C 371.526,575.966 427.526,576.632 483.5,579C 484.737,579.232 485.737,579.732 486.5,580.5 Z"/></g>
<g><path style="opacity:1" fill="#a4a4a4" d="M 325.5,578.5 C 356.997,577.336 388.664,577.169 420.5,578C 425.684,578.174 430.684,578.674 435.5,579.5C 398.84,578.676 362.173,578.343 325.5,578.5 Z"/></g>
<g><path style="opacity:1" fill="#e5e5e5" d="M 325.5,578.5 C 362.173,578.343 398.84,578.676 435.5,579.5C 444.167,579.5 452.833,579.5 461.5,579.5C 464.833,580.167 468.167,580.833 471.5,581.5C 415.164,580.358 358.831,580.358 302.5,581.5C 310.141,580.264 317.807,579.264 325.5,578.5 Z"/></g>
<g><path style="opacity:1" fill="#fefefe" d="M 471.5,581.5 C 483.854,581.805 496.188,582.472 508.5,583.5C 512.411,586.841 513.411,590.841 511.5,595.5C 509.473,604.994 507.64,614.661 506,624.5C 502.094,630.315 499.261,636.648 497.5,643.5C 493.902,646.363 491.569,650.03 490.5,654.5C 485.829,661.831 480.163,668.164 473.5,673.5C 471.833,675.833 469.833,677.833 467.5,679.5C 462.291,681.719 457.624,684.719 453.5,688.5C 452.833,688.5 452.5,688.833 452.5,689.5C 441.639,692.757 430.639,695.591 419.5,698C 403.573,699.515 387.907,698.349 372.5,694.5C 367.367,692.941 362.367,690.774 357.5,688C 351.227,684.717 345.227,681.05 339.5,677C 338.207,676.51 336.873,676.343 335.5,676.5C 329.14,669.473 322.473,662.806 315.5,656.5C 313.165,650.823 310.498,645.156 307.5,639.5C 307.043,638.702 306.376,638.369 305.5,638.5C 305.15,632.693 303.15,627.693 299.5,623.5C 299.606,620.921 298.939,618.588 297.5,616.5C 297.5,615.167 297.5,613.833 297.5,612.5C 296.517,603.463 296.517,594.463 297.5,585.5C 298.167,584.5 298.833,583.5 299.5,582.5C 299.5,581.833 299.833,581.5 300.5,581.5C 301.167,581.5 301.833,581.5 302.5,581.5C 358.831,580.358 415.164,580.358 471.5,581.5 Z"/></g>
<g><path style="opacity:1" fill="#757575" d="M 461.5,579.5 C 469.826,579.976 478.16,580.309 486.5,580.5C 493.533,580.503 500.533,581.003 507.5,582C 508.056,582.383 508.389,582.883 508.5,583.5C 496.188,582.472 483.854,581.805 471.5,581.5C 468.167,580.833 464.833,580.167 461.5,579.5 Z"/></g>
<g><path style="opacity:1" fill="#dddddd" d="M 695.5,578.5 C 714.674,578.17 733.674,578.503 752.5,579.5C 712.137,579.287 671.804,579.954 631.5,581.5C 652.634,579.563 673.967,578.563 695.5,578.5 Z"/></g>
<g><path style="opacity:1" fill="#fefefe" d="M 752.5,579.5 C 765.555,579.252 778.555,579.919 791.5,581.5C 793.154,582.75 794.821,584.084 796.5,585.5C 797.761,593.48 797.761,601.48 796.5,609.5C 793.122,615.99 791.122,622.99 790.5,630.5C 789.178,630.33 788.011,630.663 787,631.5C 786.667,633.833 786.333,636.167 786,638.5C 785.29,639.973 784.124,640.64 782.5,640.5C 783.341,644.567 782.007,647.567 778.5,649.5C 773.447,658.541 766.781,665.875 758.5,671.5C 758.649,672.552 758.483,673.552 758,674.5C 751.812,680.179 744.645,684.179 736.5,686.5C 735.614,687.325 735.281,688.325 735.5,689.5C 734.508,689.328 733.842,689.662 733.5,690.5C 712.557,696.433 691.224,698.433 669.5,696.5C 663.357,695.759 657.357,694.426 651.5,692.5C 648.343,692.921 646.01,691.755 644.5,689C 641.846,688.059 639.179,687.226 636.5,686.5C 633.692,684.677 631.025,682.677 628.5,680.5C 625.562,676.194 621.562,673.527 616.5,672.5C 615.167,670.833 613.833,669.167 612.5,667.5C 609.595,663.234 606.595,658.901 603.5,654.5C 602.735,653.388 601.735,652.721 600.5,652.5C 598.947,649.76 597.114,647.093 595,644.5C 594.08,639.648 591.913,635.648 588.5,632.5C 588.041,629.123 587.374,625.789 586.5,622.5C 586.882,617.911 586.049,613.577 584,609.5C 582.941,602.52 582.607,595.52 583,588.5C 585.839,585.28 589.339,583.614 593.5,583.5C 605.956,581.777 618.623,581.11 631.5,581.5C 671.804,579.954 712.137,579.287 752.5,579.5 Z"/></g>
<g><path style="opacity:1" fill="#636363" d="M 508.5,583.5 C 510.371,583.859 511.871,584.859 513,586.5C 513.667,592.5 513.667,598.5 513,604.5C 512.768,605.737 512.268,606.737 511.5,607.5C 511.5,603.5 511.5,599.5 511.5,595.5C 513.411,590.841 512.411,586.841 508.5,583.5 Z"/></g>
<g><path style="opacity:1" fill="#3b3b3b" d="M 785.5,578.5 C 791.592,578.212 796.258,580.546 799.5,585.5C 799.833,588.167 800.167,590.833 800.5,593.5C 800.478,596.59 799.812,599.257 798.5,601.5C 798.666,596.489 798.499,591.489 798,586.5C 797.617,585.944 797.117,585.611 796.5,585.5C 794.821,584.084 793.154,582.75 791.5,581.5C 789.629,580.203 787.629,579.203 785.5,578.5 Z"/></g>
<g><path style="opacity:1" fill="#cccccc" d="M 297.5,585.5 C 296.517,594.463 296.517,603.463 297.5,612.5C 296.732,611.737 296.232,610.737 296,609.5C 295.333,601.833 295.333,594.167 296,586.5C 296.383,585.944 296.883,585.611 297.5,585.5 Z"/></g>
<g><path style="opacity:1" fill="#393939" d="M 584.5,582.5 C 583.207,584.296 581.707,585.963 580,587.5C 579.199,590.367 579.366,593.034 580.5,595.5C 580.773,603.803 582.106,611.803 584.5,619.5C 584.5,620.833 584.5,622.167 584.5,623.5C 582.354,617.717 580.521,611.717 579,605.5C 578.333,599.167 578.333,592.833 579,586.5C 580.451,584.536 582.284,583.203 584.5,582.5 Z"/></g>
<g><path style="opacity:1" fill="#343434" d="M 290.5,516.5 C 291.908,538.989 292.908,561.655 293.5,584.5C 294.518,583.807 295.518,583.141 296.5,582.5C 296.5,582.833 296.5,583.167 296.5,583.5C 296.217,584.289 295.717,584.956 295,585.5C 294.5,592.492 294.334,599.492 294.5,606.5C 293.698,605.048 293.198,603.382 293,601.5C 292.667,615.5 292.333,629.5 292,643.5C 291.262,646.991 290.429,650.325 289.5,653.5C 291.165,637.561 291.832,621.561 291.5,605.5C 291.64,575.826 291.307,546.159 290.5,516.5 Z"/></g>
<g><path style="opacity:1" fill="#363636" d="M 835.5,474.5 C 832.905,485.124 830.405,495.791 828,506.5C 825.009,555.519 824.842,604.519 827.5,653.5C 826.776,650.917 825.943,648.251 825,645.5C 823.915,597.471 824.581,549.471 827,501.5C 829.75,492.419 832.583,483.419 835.5,474.5 Z"/></g>
<g><path style="opacity:1" fill="#383838" d="M 185.5,598.5 C 186.117,598.611 186.617,598.944 187,599.5C 188.423,608.382 190.589,617.049 193.5,625.5C 189.371,616.957 186.705,607.957 185.5,598.5 Z"/></g>
<g><path style="opacity:1" fill="#737373" d="M 299.5,582.5 C 298.833,583.5 298.167,584.5 297.5,585.5C 296.883,585.611 296.383,585.944 296,586.5C 295.333,594.167 295.333,601.833 296,609.5C 296.232,610.737 296.732,611.737 297.5,612.5C 297.5,613.833 297.5,615.167 297.5,616.5C 296.687,614.739 295.687,613.072 294.5,611.5C 294.5,609.833 294.5,608.167 294.5,606.5C 294.334,599.492 294.5,592.492 295,585.5C 295.717,584.956 296.217,584.289 296.5,583.5C 297.391,582.89 298.391,582.557 299.5,582.5 Z"/></g>
<g><path style="opacity:1" fill="#cecece" d="M 593.5,583.5 C 589.339,583.614 585.839,585.28 583,588.5C 582.607,595.52 582.941,602.52 584,609.5C 586.049,613.577 586.882,617.911 586.5,622.5C 585.833,621.5 585.167,620.5 584.5,619.5C 582.106,611.803 580.773,603.803 580.5,595.5C 580.323,586.679 584.656,582.679 593.5,583.5 Z"/></g>
<g><path style="opacity:1" fill="#6b6b6b" d="M 796.5,585.5 C 797.117,585.611 797.617,585.944 798,586.5C 798.499,591.489 798.666,596.489 798.5,601.5C 798.665,604.85 798.498,608.183 798,611.5C 797.722,612.416 797.222,613.082 796.5,613.5C 796.5,612.167 796.5,610.833 796.5,609.5C 797.761,601.48 797.761,593.48 796.5,585.5 Z"/></g>
<g><path style="opacity:1" fill="#b0b0b0" d="M 299.5,623.5 C 303.15,627.693 305.15,632.693 305.5,638.5C 304.857,636.924 303.857,635.59 302.5,634.5C 301.759,630.708 300.759,627.041 299.5,623.5 Z"/></g>
<g><path style="opacity:1" fill="#bfbfbf" d="M 511.5,595.5 C 511.5,599.5 511.5,603.5 511.5,607.5C 509.951,614.126 508.618,620.793 507.5,627.5C 504.863,629.482 503.53,632.148 503.5,635.5C 501.184,639.204 499.184,643.204 497.5,647.5C 494.806,649.527 492.473,651.861 490.5,654.5C 491.569,650.03 493.902,646.363 497.5,643.5C 499.261,636.648 502.094,630.315 506,624.5C 507.64,614.661 509.473,604.994 511.5,595.5 Z"/></g>
<g><path style="opacity:1" fill="#383838" d="M 294.5,611.5 C 295.687,613.072 296.687,614.739 297.5,616.5C 298.939,618.588 299.606,620.921 299.5,623.5C 300.759,627.041 301.759,630.708 302.5,634.5C 301.735,633.34 300.735,632.34 299.5,631.5C 297.585,624.935 295.918,618.268 294.5,611.5 Z"/></g>
<g><path style="opacity:1" fill="#828282" d="M 584.5,619.5 C 585.167,620.5 585.833,621.5 586.5,622.5C 587.374,625.789 588.041,629.123 588.5,632.5C 586.432,629.826 585.099,626.826 584.5,623.5C 584.5,622.167 584.5,620.833 584.5,619.5 Z"/></g>
<g><path style="opacity:1" fill="#4f4f4f" d="M 507.5,627.5 C 507.47,630.852 506.137,633.518 503.5,635.5C 503.53,632.148 504.863,629.482 507.5,627.5 Z"/></g>
<g><path style="opacity:1" fill="#2f2f2f" d="M 796.5,613.5 C 796.824,617.555 796.491,621.555 795.5,625.5C 793.333,628.469 791.999,631.803 791.5,635.5C 790.859,636.993 789.859,637.993 788.5,638.5C 791.497,630.197 794.163,621.864 796.5,613.5 Z"/></g>
<g><path style="opacity:1" fill="#939393" d="M 305.5,638.5 C 306.376,638.369 307.043,638.702 307.5,639.5C 310.498,645.156 313.165,650.823 315.5,656.5C 311.156,651.153 307.823,645.153 305.5,638.5 Z"/></g>
<g><path style="opacity:1" fill="#737373" d="M 588.5,632.5 C 591.913,635.648 594.08,639.648 595,644.5C 597.114,647.093 598.947,649.76 600.5,652.5C 601.382,655.385 602.716,658.052 604.5,660.5C 602.203,658.706 600.037,656.706 598,654.5C 594.835,647.183 591.668,639.85 588.5,632.5 Z"/></g>
<g><path style="opacity:1" fill="#c2c2c2" d="M 600.5,652.5 C 601.735,652.721 602.735,653.388 603.5,654.5C 606.595,658.901 609.595,663.234 612.5,667.5C 609.622,665.411 606.955,663.077 604.5,660.5C 602.716,658.052 601.382,655.385 600.5,652.5 Z"/></g>
<g><path style="opacity:1" fill="#707070" d="M 497.5,647.5 C 495.045,654.284 491.045,659.95 485.5,664.5C 482.369,667.129 479.369,669.962 476.5,673C 475.552,673.483 474.552,673.649 473.5,673.5C 480.163,668.164 485.829,661.831 490.5,654.5C 492.473,651.861 494.806,649.527 497.5,647.5 Z"/></g>
<g><path style="opacity:1" fill="#888888" d="M 315.5,656.5 C 322.473,662.806 329.14,669.473 335.5,676.5C 328.59,671.096 322.09,665.096 316,658.5C 315.536,657.906 315.369,657.239 315.5,656.5 Z"/></g>
<g><path style="opacity:1" fill="#7c7c7c" d="M 777.5,655.5 C 775.792,659.572 773.126,662.905 769.5,665.5C 771.688,661.793 774.355,658.46 777.5,655.5 Z"/></g>
<g><path style="opacity:1" fill="#2e2e2e" d="M 604.5,660.5 C 606.955,663.077 609.622,665.411 612.5,667.5C 613.833,669.167 615.167,670.833 616.5,672.5C 617.5,673.833 618.5,675.167 619.5,676.5C 617.289,676.033 615.289,675.033 613.5,673.5C 610.893,670.859 608.226,668.192 605.5,665.5C 604.691,663.929 604.357,662.262 604.5,660.5 Z"/></g>
<g><path style="opacity:1" fill="#393939" d="M 485.5,664.5 C 483.443,668.067 480.777,671.234 477.5,674C 473.346,676.66 469.346,679.493 465.5,682.5C 466.167,681.5 466.833,680.5 467.5,679.5C 469.833,677.833 471.833,675.833 473.5,673.5C 474.552,673.649 475.552,673.483 476.5,673C 479.369,669.962 482.369,667.129 485.5,664.5 Z"/></g>
<g><path style="opacity:1" fill="#b0b0b0" d="M 616.5,672.5 C 621.562,673.527 625.562,676.194 628.5,680.5C 627.833,680.5 627.167,680.5 626.5,680.5C 624.167,679.167 621.833,677.833 619.5,676.5C 618.5,675.167 617.5,673.833 616.5,672.5 Z"/></g>
<g><path style="opacity:1" fill="#515151" d="M 769.5,665.5 C 765.555,671.445 760.555,676.445 754.5,680.5C 759.194,675.14 764.194,670.14 769.5,665.5 Z"/></g>
<g><path style="opacity:1" fill="#6e6e6e" d="M 626.5,680.5 C 627.167,680.5 627.833,680.5 628.5,680.5C 631.025,682.677 633.692,684.677 636.5,686.5C 631.925,686.547 628.592,684.547 626.5,680.5 Z"/></g>
<g><path style="opacity:1" fill="#b7b7b7" d="M 796.5,609.5 C 796.5,610.833 796.5,612.167 796.5,613.5C 794.163,621.864 791.497,630.197 788.5,638.5C 785.55,644.616 781.884,650.283 777.5,655.5C 774.355,658.46 771.688,661.793 769.5,665.5C 764.194,670.14 759.194,675.14 754.5,680.5C 751.55,681.308 748.883,682.642 746.5,684.5C 742.983,686.424 739.316,688.091 735.5,689.5C 735.281,688.325 735.614,687.325 736.5,686.5C 744.645,684.179 751.812,680.179 758,674.5C 758.483,673.552 758.649,672.552 758.5,671.5C 766.781,665.875 773.447,658.541 778.5,649.5C 782.007,647.567 783.341,644.567 782.5,640.5C 784.124,640.64 785.29,639.973 786,638.5C 786.333,636.167 786.667,633.833 787,631.5C 788.011,630.663 789.178,630.33 790.5,630.5C 791.122,622.99 793.122,615.99 796.5,609.5 Z"/></g>
<g><path style="opacity:1" fill="#7a7a7a" d="M 467.5,679.5 C 466.833,680.5 466.167,681.5 465.5,682.5C 461.752,684.892 457.752,686.892 453.5,688.5C 457.624,684.719 462.291,681.719 467.5,679.5 Z"/></g>
<g><path style="opacity:1" fill="#b6b6b6" d="M 335.5,676.5 C 336.873,676.343 338.207,676.51 339.5,677C 345.227,681.05 351.227,684.717 357.5,688C 362.367,690.774 367.367,692.941 372.5,694.5C 371.167,694.5 369.833,694.5 368.5,694.5C 365.892,694.6 363.558,693.933 361.5,692.5C 357.396,690.275 353.396,687.775 349.5,685C 348.207,684.51 346.873,684.343 345.5,684.5C 341.793,682.312 338.46,679.645 335.5,676.5 Z"/></g>
<g><path style="opacity:1" fill="#484848" d="M 345.5,684.5 C 346.873,684.343 348.207,684.51 349.5,685C 353.396,687.775 357.396,690.275 361.5,692.5C 358.391,692.345 355.391,691.678 352.5,690.5C 350.147,688.477 347.814,686.477 345.5,684.5 Z"/></g>
<g><path style="opacity:1" fill="#616161" d="M 636.5,686.5 C 639.179,687.226 641.846,688.059 644.5,689C 646.01,691.755 648.343,692.921 651.5,692.5C 654.833,694.167 658.167,695.833 661.5,697.5C 651.959,696.329 643.625,692.662 636.5,686.5 Z"/></g>
<g><path style="opacity:1" fill="#595959" d="M 746.5,684.5 C 741.751,689.117 736.084,692.117 729.5,693.5C 730.59,692.143 731.924,691.143 733.5,690.5C 733.842,689.662 734.508,689.328 735.5,689.5C 739.316,688.091 742.983,686.424 746.5,684.5 Z"/></g>
<g><path style="opacity:1" fill="#b1b1b1" d="M 651.5,692.5 C 657.357,694.426 663.357,695.759 669.5,696.5C 670.609,697.29 671.942,697.79 673.5,698C 683.161,698.5 692.828,698.666 702.5,698.5C 693.348,699.494 684.015,699.827 674.5,699.5C 670.186,698.725 665.853,698.059 661.5,697.5C 658.167,695.833 654.833,694.167 651.5,692.5 Z"/></g>
<g><path style="opacity:1" fill="#dadada" d="M 733.5,690.5 C 731.924,691.143 730.59,692.143 729.5,693.5C 728.833,693.5 728.167,693.5 727.5,693.5C 719.227,695.366 710.894,697.033 702.5,698.5C 692.828,698.666 683.161,698.5 673.5,698C 671.942,697.79 670.609,697.29 669.5,696.5C 691.224,698.433 712.557,696.433 733.5,690.5 Z"/></g>
<g><path style="opacity:1" fill="#9c9c9c" d="M 452.5,689.5 C 447.485,692.097 442.151,694.097 436.5,695.5C 431.191,696.076 426.191,697.409 421.5,699.5C 409.848,700.469 398.181,700.635 386.5,700C 383.037,698.531 379.37,697.697 375.5,697.5C 372.509,697.834 370.176,696.834 368.5,694.5C 369.833,694.5 371.167,694.5 372.5,694.5C 387.907,698.349 403.573,699.515 419.5,698C 430.639,695.591 441.639,692.757 452.5,689.5 Z"/></g>
<g><path style="opacity:1" fill="#515151" d="M 436.5,695.5 C 434.628,697.062 432.295,698.062 429.5,698.5C 426.914,699.48 424.247,699.813 421.5,699.5C 426.191,697.409 431.191,696.076 436.5,695.5 Z"/></g>
<g><path style="opacity:1" fill="#767676" d="M 727.5,693.5 C 724.823,695.46 721.823,696.96 718.5,698C 711.848,699.031 705.181,699.865 698.5,700.5C 690.316,700.826 682.316,700.492 674.5,699.5C 684.015,699.827 693.348,699.494 702.5,698.5C 710.894,697.033 719.227,695.366 727.5,693.5 Z"/></g>
<g><path style="opacity:1" fill="#414141" d="M 375.5,697.5 C 379.37,697.697 383.037,698.531 386.5,700C 398.181,700.635 409.848,700.469 421.5,699.5C 421.082,700.222 420.416,700.722 419.5,701C 408.167,701.667 396.833,701.667 385.5,701C 381.89,700.262 378.557,699.095 375.5,697.5 Z"/></g>
<g><path style="opacity:1" fill="#494949" d="M 661.5,697.5 C 665.853,698.059 670.186,698.725 674.5,699.5C 682.316,700.492 690.316,700.826 698.5,700.5C 690.344,701.657 682.01,701.823 673.5,701C 669.242,700.244 665.242,699.077 661.5,697.5 Z"/></g>
</svg>
