<?xml version="1.0" encoding="UTF-8"?>
<!DOCTYPE svg PUBLIC "-//W3C//DTD SVG 1.1//EN" "http://www.w3.org/Graphics/SVG/1.1/DTD/svg11.dtd">
<svg xmlns="http://www.w3.org/2000/svg" version="1.1" width="407px" height="80px" style="shape-rendering:geometricPrecision; text-rendering:geometricPrecision; image-rendering:optimizeQuality; fill-rule:evenodd; clip-rule:evenodd" xmlns:xlink="http://www.w3.org/1999/xlink">
<g><path style="opacity:0.831" fill="#f7f7f7" d="M 143.5,-0.5 C 149.833,-0.5 156.167,-0.5 162.5,-0.5C 165.518,0.502701 168.518,1.83603 171.5,3.5C 174.007,6.51108 176.007,9.84441 177.5,13.5C 178.598,20.803 178.765,28.1364 178,35.5C 176.02,46.4127 172.353,56.7461 167,66.5C 161.201,75.9808 152.701,79.9808 141.5,78.5C 137.833,78.1667 134.167,77.8333 130.5,77.5C 130.013,76.5539 129.68,75.5539 129.5,74.5C 134.585,52.7315 139.919,31.0648 145.5,9.5C 141.838,10.3629 139.672,9.02959 139,5.5C 132.748,17.7462 126.082,29.7462 119,41.5C 120.247,53.9057 122.08,66.239 124.5,78.5C 121.15,78.665 117.817,78.4983 114.5,78C 113.594,76.3005 113.261,74.4672 113.5,72.5C 112.935,70.0479 112.268,67.7146 111.5,65.5C 110.594,61.3217 109.76,56.9884 109,52.5C 105.263,60.543 101.43,68.543 97.5,76.5C 96.9747,77.1924 96.3081,77.6924 95.5,78C 92.1832,78.4983 88.8499,78.665 85.5,78.5C 85.3367,76.1432 85.5034,73.8098 86,71.5C 91.7356,60.3626 97.7356,49.3626 104,38.5C 102.083,25.8904 100.25,13.2237 98.5,0.5C 102.167,0.5 105.833,0.5 109.5,0.5C 110.271,9.40276 112.104,18.0694 115,26.5C 119.156,18.1889 123.322,9.85556 127.5,1.5C 132.985,0.833192 138.319,0.166525 143.5,-0.5 Z M 157.5,8.5 C 165.375,10.9784 169.042,16.4784 168.5,25C 167.063,38.811 162.73,51.6444 155.5,63.5C 151.815,68.0595 147.148,69.8928 141.5,69C 147.675,49.1369 153.009,28.9703 157.5,8.5 Z"/></g>
<g><path style="opacity:0.833" fill="#f7f7f7" d="M 252.5,-0.5 C 256.167,-0.5 259.833,-0.5 263.5,-0.5C 264.842,0.793048 266.509,1.62638 268.5,2C 273.438,7.46765 275.438,13.9677 274.5,21.5C 273.546,37.2516 269.546,52.2516 262.5,66.5C 260.375,70.1246 257.709,73.2913 254.5,76C 251.931,76.8984 249.598,78.065 247.5,79.5C 243.833,79.5 240.167,79.5 236.5,79.5C 228.294,76.578 224.294,70.578 224.5,61.5C 224.283,56.7697 224.617,52.1031 225.5,47.5C 226.77,33.7141 231.27,21.0475 239,9.5C 242.802,5.03664 247.302,1.70331 252.5,-0.5 Z M 255.5,9.5 C 259.504,10.6733 262.004,13.34 263,17.5C 263.663,23.5482 263.33,29.5482 262,35.5C 259.767,44.0947 256.767,52.4281 253,60.5C 242.756,75.2298 236.589,73.5631 234.5,55.5C 236.283,40.6463 241.116,26.9796 249,14.5C 251.406,12.9134 253.572,11.2467 255.5,9.5 Z"/></g>
<g><path style="opacity:0.845" fill="#f7f7f7" d="M 187.5,0.5 C 197.172,0.333531 206.839,0.500198 216.5,1C 220.592,3.00296 223.426,6.16962 225,10.5C 227.015,21.9211 223.848,31.4211 215.5,39C 218.265,43.7692 219.098,48.9359 218,54.5C 217.141,63.6695 212.975,70.8362 205.5,76C 203.5,76.6667 201.5,77.3333 199.5,78C 191.173,78.4997 182.84,78.6664 174.5,78.5C 174.411,75.2914 174.744,72.1248 175.5,69C 181.125,49.8903 186.125,30.557 190.5,11C 189.381,9.12404 187.714,8.29071 185.5,8.5C 185.132,5.46687 185.798,2.8002 187.5,0.5 Z M 201.5,9.5 C 208.848,7.90545 213.182,10.7388 214.5,18C 213.028,22.0836 211.361,26.0836 209.5,30C 205.657,32.8622 201.324,34.0289 196.5,33.5C 198.921,25.734 200.587,17.734 201.5,9.5 Z M 193.5,43.5 C 207.635,41.8307 211.468,47.4974 205,60.5C 200.621,67.4424 194.454,70.1091 186.5,68.5C 189.304,60.2804 191.638,51.947 193.5,43.5 Z"/></g>
<g><path style="opacity:0.835" fill="#f7f7f7" d="M 279.5,0.5 C 283.167,0.5 286.833,0.5 290.5,0.5C 291.277,9.47559 293.11,18.1423 296,26.5C 300.162,18.1756 304.329,9.84222 308.5,1.5C 312.445,0.509086 316.445,0.175753 320.5,0.5C 320.172,4.81647 318.839,8.81647 316.5,12.5C 310.128,22.7377 304.128,33.2377 298.5,44C 301.42,55.3455 303.753,66.8455 305.5,78.5C 301.894,78.7892 298.394,78.4558 295,77.5C 292.6,69.3951 290.933,61.0618 290,52.5C 286.085,60.4568 282.252,68.4568 278.5,76.5C 277.975,77.1924 277.308,77.6924 276.5,78C 272.848,78.4986 269.182,78.6653 265.5,78.5C 265.338,76.4727 265.505,74.4727 266,72.5C 272.323,61.1894 278.657,49.8561 285,38.5C 283.083,25.8904 281.25,13.2237 279.5,0.5 Z"/></g>
<g><path style="opacity:0.015" fill="#fefffe" d="M 225.5,47.5 C 224.617,52.1031 224.283,56.7697 224.5,61.5C 223.353,57.3537 223.186,53.0204 224,48.5C 224.383,47.944 224.883,47.6107 225.5,47.5 Z"/></g>
<g><path style="opacity:0.032" fill="#fefffe" d="M 111.5,65.5 C 112.268,67.7146 112.935,70.0479 113.5,72.5C 111.656,70.7211 110.99,68.3878 111.5,65.5 Z"/></g>
</svg>
