<?xml version="1.0" encoding="UTF-8"?>
<!DOCTYPE svg PUBLIC "-//W3C//DTD SVG 1.1//EN" "http://www.w3.org/Graphics/SVG/1.1/DTD/svg11.dtd">
<svg xmlns="http://www.w3.org/2000/svg" version="1.1" width="407px" height="80px" style="shape-rendering:geometricPrecision; text-rendering:geometricPrecision; image-rendering:optimizeQuality; fill-rule:evenodd; clip-rule:evenodd" xmlns:xlink="http://www.w3.org/1999/xlink">
<g><path style="opacity:0.783" fill="#000000" d="M 275.5,18.5 C 277.346,20.0301 278.346,22.0301 278.5,24.5C 281.833,24.5 285.167,24.5 288.5,24.5C 288.5,25.8333 288.5,27.1667 288.5,28.5C 286.801,28.3398 285.134,28.5065 283.5,29C 284.479,30.7785 284.146,32.4452 282.5,34C 285.146,34.4974 287.813,34.6641 290.5,34.5C 290.5,35.8333 290.5,37.1667 290.5,38.5C 281.167,38.5 271.833,38.5 262.5,38.5C 262.5,37.1667 262.5,35.8333 262.5,34.5C 264.924,34.8076 267.257,34.4742 269.5,33.5C 267.73,32.1804 267.397,30.6804 268.5,29C 267.207,28.51 265.873,28.3433 264.5,28.5C 264.5,27.1667 264.5,25.8333 264.5,24.5C 267.85,24.665 271.183,24.4983 274.5,24C 271.537,21.3509 271.87,19.5175 275.5,18.5 Z M 271.5,29.5 C 274.304,28.3622 277.304,28.1955 280.5,29C 277.737,36.0991 274.737,36.2657 271.5,29.5 Z"/></g>
<g><path style="opacity:0.762" fill="#000000" d="M 32.5,19.5 C 33.8333,19.5 35.1667,19.5 36.5,19.5C 36.5,20.8333 36.5,22.1667 36.5,23.5C 40.1667,23.5 43.8333,23.5 47.5,23.5C 47.5,25.5 47.5,27.5 47.5,29.5C 48.8333,29.5 50.1667,29.5 51.5,29.5C 51.5,30.8333 51.5,32.1667 51.5,33.5C 50.1667,33.5 48.8333,33.5 47.5,33.5C 47.5,35.5 47.5,37.5 47.5,39.5C 43.8333,39.5 40.1667,39.5 36.5,39.5C 36.5,40.5 36.5,41.5 36.5,42.5C 40.5,42.5 44.5,42.5 48.5,42.5C 48.5,43.8333 48.5,45.1667 48.5,46.5C 44.5,46.5 40.5,46.5 36.5,46.5C 36.5,47.5 36.5,48.5 36.5,49.5C 40.8333,49.5 45.1667,49.5 49.5,49.5C 49.5,50.8333 49.5,52.1667 49.5,53.5C 45.1667,53.5 40.8333,53.5 36.5,53.5C 36.5,54.8333 36.5,56.1667 36.5,57.5C 41.544,57.1725 46.544,57.5059 51.5,58.5C 51.1667,59.1667 50.8333,59.8333 50.5,60.5C 40.4655,61.8651 30.4655,61.6984 20.5,60C 18.4127,59.2078 16.5793,58.0412 15,56.5C 13.3745,59.1277 11.3745,61.461 9,63.5C 7.97827,62.646 7.14494,61.646 6.5,60.5C 8.68997,58.1443 10.69,55.6443 12.5,53C 10.0245,49.8942 8.85779,46.3942 9,42.5C 9.41395,42.0426 9.91395,41.7093 10.5,41.5C 11.6566,43.678 12.9899,45.678 14.5,47.5C 15.9318,45.1838 16.9318,42.6838 17.5,40C 14.5184,39.502 11.5184,39.3354 8.5,39.5C 9.73544,34.5545 12.4021,30.3879 16.5,27C 13.5184,26.502 10.5184,26.3354 7.5,26.5C 7.5,25.1667 7.5,23.8333 7.5,22.5C 12.1667,22.5 16.8333,22.5 21.5,22.5C 20.7738,27.4346 18.4405,31.6012 14.5,35C 16.8098,35.4966 19.1432,35.6633 21.5,35.5C 20.998,41.3442 19.6647,47.0109 17.5,52.5C 21.4582,56.9592 26.4582,58.6258 32.5,57.5C 32.5,56.1667 32.5,54.8333 32.5,53.5C 28.5,53.5 24.5,53.5 20.5,53.5C 20.5,52.1667 20.5,50.8333 20.5,49.5C 24.5,49.5 28.5,49.5 32.5,49.5C 32.5,48.5 32.5,47.5 32.5,46.5C 29.1667,46.5 25.8333,46.5 22.5,46.5C 22.5,45.1667 22.5,43.8333 22.5,42.5C 25.8333,42.5 29.1667,42.5 32.5,42.5C 32.5,41.5 32.5,40.5 32.5,39.5C 29.5,39.5 26.5,39.5 23.5,39.5C 23.5,38.5 23.5,37.5 23.5,36.5C 26.5,36.5 29.5,36.5 32.5,36.5C 32.5,35.5 32.5,34.5 32.5,33.5C 28.8333,33.5 25.1667,33.5 21.5,33.5C 21.5,32.1667 21.5,30.8333 21.5,29.5C 25.1667,29.5 28.8333,29.5 32.5,29.5C 32.5,28.5 32.5,27.5 32.5,26.5C 29.5,26.5 26.5,26.5 23.5,26.5C 23.5,25.5 23.5,24.5 23.5,23.5C 26.5,23.5 29.5,23.5 32.5,23.5C 32.5,22.1667 32.5,20.8333 32.5,19.5 Z M 36.5,26.5 C 38.8333,26.5 41.1667,26.5 43.5,26.5C 43.5,27.5 43.5,28.5 43.5,29.5C 41.1667,29.5 38.8333,29.5 36.5,29.5C 36.5,28.5 36.5,27.5 36.5,26.5 Z M 36.5,33.5 C 38.8333,33.5 41.1667,33.5 43.5,33.5C 43.5,34.5 43.5,35.5 43.5,36.5C 41.1667,36.5 38.8333,36.5 36.5,36.5C 36.5,35.5 36.5,34.5 36.5,33.5 Z"/></g>
<g><path style="opacity:0.781" fill="#000000" d="M 110.5,19.5 C 112.167,19.5 113.833,19.5 115.5,19.5C 115.5,22.5 115.5,25.5 115.5,28.5C 117.5,28.5 119.5,28.5 121.5,28.5C 121.5,29.8333 121.5,31.1667 121.5,32.5C 119.5,32.5 117.5,32.5 115.5,32.5C 115.5,34.8333 115.5,37.1667 115.5,39.5C 117.262,39.6427 118.929,39.3094 120.5,38.5C 122.596,39.6197 122.93,41.1197 121.5,43C 119.782,43.346 118.115,43.846 116.5,44.5C 115.903,49.9114 115.069,55.2447 114,60.5C 113.5,61 113,61.5 112.5,62C 109.518,62.498 106.518,62.6646 103.5,62.5C 103.5,60.8333 103.5,59.1667 103.5,57.5C 105.833,57.5 108.167,57.5 110.5,57.5C 110.5,53.8333 110.5,50.1667 110.5,46.5C 108.173,46.6646 106.007,47.3313 104,48.5C 102.731,47.0953 102.231,45.4286 102.5,43.5C 109.496,43.2588 112.163,39.5922 110.5,32.5C 108.167,32.5 105.833,32.5 103.5,32.5C 103.5,31.1667 103.5,29.8333 103.5,28.5C 105.833,28.5 108.167,28.5 110.5,28.5C 110.5,25.5 110.5,22.5 110.5,19.5 Z"/></g>
<g><path style="opacity:0.809" fill="#000000" d="M 300.5,19.5 C 301.833,19.5 303.167,19.5 304.5,19.5C 304.5,22.5 304.5,25.5 304.5,28.5C 306.5,28.5 308.5,28.5 310.5,28.5C 310.5,29.5 310.5,30.5 310.5,31.5C 312.167,31.5 313.833,31.5 315.5,31.5C 315.5,30.1667 315.5,28.8333 315.5,27.5C 313.167,27.5 310.833,27.5 308.5,27.5C 308.5,26.1667 308.5,24.8333 308.5,23.5C 310.833,23.5 313.167,23.5 315.5,23.5C 315.5,22.1667 315.5,20.8333 315.5,19.5C 316.833,19.5 318.167,19.5 319.5,19.5C 319.5,20.8333 319.5,22.1667 319.5,23.5C 321.5,23.5 323.5,23.5 325.5,23.5C 325.5,22.1667 325.5,20.8333 325.5,19.5C 326.833,19.5 328.167,19.5 329.5,19.5C 329.5,20.8333 329.5,22.1667 329.5,23.5C 332.167,23.5 334.833,23.5 337.5,23.5C 337.5,24.8333 337.5,26.1667 337.5,27.5C 334.833,27.5 332.167,27.5 329.5,27.5C 329.5,28.8333 329.5,30.1667 329.5,31.5C 331.167,31.5 332.833,31.5 334.5,31.5C 334.5,36.5 334.5,41.5 334.5,46.5C 331.167,46.5 327.833,46.5 324.5,46.5C 324.5,47.5 324.5,48.5 324.5,49.5C 328.833,49.5 333.167,49.5 337.5,49.5C 337.5,50.5 337.5,51.5 337.5,52.5C 333.486,52.3345 329.486,52.5012 325.5,53C 329.232,56.465 333.565,58.7983 338.5,60C 337.929,61.2051 337.262,62.3717 336.5,63.5C 330.856,62.2624 326.023,59.5957 322,55.5C 318.248,59.651 313.581,62.3177 308,63.5C 307.044,62.4214 306.211,61.2547 305.5,60C 310.729,59.1598 315.062,56.8265 318.5,53C 314.848,52.5014 311.182,52.3347 307.5,52.5C 307.5,51.5 307.5,50.5 307.5,49.5C 311.5,49.5 315.5,49.5 319.5,49.5C 319.5,48.5 319.5,47.5 319.5,46.5C 316.5,46.5 313.5,46.5 310.5,46.5C 310.649,45.448 310.483,44.448 310,43.5C 307.546,45.013 305.879,44.3463 305,41.5C 304.5,48.4921 304.334,55.4921 304.5,62.5C 303.167,62.5 301.833,62.5 300.5,62.5C 300.666,56.1579 300.5,49.8246 300,43.5C 298.753,46.3286 297.253,48.9952 295.5,51.5C 294.167,50.8333 293.167,49.8333 292.5,48.5C 295.107,43.6203 297.44,38.6203 299.5,33.5C 297.955,32.5481 296.288,32.2148 294.5,32.5C 294.5,31.1667 294.5,29.8333 294.5,28.5C 296.5,28.5 298.5,28.5 300.5,28.5C 300.5,25.5 300.5,22.5 300.5,19.5 Z M 319.5,27.5 C 321.5,27.5 323.5,27.5 325.5,27.5C 325.5,28.8333 325.5,30.1667 325.5,31.5C 323.5,31.5 321.5,31.5 319.5,31.5C 319.5,30.1667 319.5,28.8333 319.5,27.5 Z M 304.5,32.5 C 306.5,32.5 308.5,32.5 310.5,32.5C 310.665,35.5184 310.498,38.5184 310,41.5C 308.71,39.208 307.043,37.208 305,35.5C 304.517,34.552 304.351,33.552 304.5,32.5 Z M 314.5,34.5 C 319.833,34.5 325.167,34.5 330.5,34.5C 330.5,35.5 330.5,36.5 330.5,37.5C 325.167,37.5 319.833,37.5 314.5,37.5C 314.5,36.5 314.5,35.5 314.5,34.5 Z M 314.5,40.5 C 319.833,40.5 325.167,40.5 330.5,40.5C 330.5,41.5 330.5,42.5 330.5,43.5C 325.167,43.5 319.833,43.5 314.5,43.5C 314.5,42.5 314.5,41.5 314.5,40.5 Z"/></g>
<g><path style="opacity:0.807" fill="#000000" d="M 365.5,19.5 C 367.167,19.5 368.833,19.5 370.5,19.5C 370.5,22.1667 370.5,24.8333 370.5,27.5C 372.857,27.6633 375.19,27.4966 377.5,27C 375.983,25.3149 374.316,23.8149 372.5,22.5C 373.145,21.354 373.978,20.354 375,19.5C 377.292,20.7899 379.292,22.4565 381,24.5C 381.617,25.4491 381.451,26.2825 380.5,27C 381.793,27.49 383.127,27.6567 384.5,27.5C 384.5,28.8333 384.5,30.1667 384.5,31.5C 379.833,31.5 375.167,31.5 370.5,31.5C 370.612,40.2269 372.445,48.5602 376,56.5C 377,57.8333 378,57.8333 379,56.5C 379.771,53.8103 380.604,51.1436 381.5,48.5C 383.291,48.9619 384.291,50.1285 384.5,52C 383.443,63.5194 378.943,65.3527 371,57.5C 367.952,49.4286 366.119,41.0953 365.5,32.5C 357.528,31.5023 349.528,31.169 341.5,31.5C 341.5,30.1667 341.5,28.8333 341.5,27.5C 349.5,27.5 357.5,27.5 365.5,27.5C 365.5,24.8333 365.5,22.1667 365.5,19.5 Z"/></g>
<g><path style="opacity:0.716" fill="#000000" d="M 59.5,20.5 C 60.675,20.281 61.675,20.6143 62.5,21.5C 63.7567,23.6789 65.2567,25.6789 67,27.5C 67.3087,29.3914 66.4753,30.7248 64.5,31.5C 62.0472,28.7587 59.7139,25.9254 57.5,23C 58.3805,22.2917 59.0472,21.4584 59.5,20.5 Z"/></g>
<g><path style="opacity:0.737" fill="#000000" d="M 78.5,20.5 C 79.9778,20.238 81.3112,20.5713 82.5,21.5C 83.9699,24.273 85.3032,27.1063 86.5,30C 85.4036,32.1469 83.9036,32.6469 82,31.5C 80.5,28.5 79,25.5 77.5,22.5C 77.8627,21.8165 78.1961,21.1499 78.5,20.5 Z"/></g>
<g><path style="opacity:0.767" fill="#000000" d="M 202.5,21.5 C 214.5,21.5 226.5,21.5 238.5,21.5C 238.666,27.1764 238.499,32.8431 238,38.5C 232.928,39.4714 227.762,39.8047 222.5,39.5C 222.5,40.5 222.5,41.5 222.5,42.5C 228.167,42.5 233.833,42.5 239.5,42.5C 239.5,43.5 239.5,44.5 239.5,45.5C 233.833,45.5 228.167,45.5 222.5,45.5C 222.5,46.8333 222.5,48.1667 222.5,49.5C 228.833,49.5 235.167,49.5 241.5,49.5C 241.5,50.8333 241.5,52.1667 241.5,53.5C 239.712,53.2148 238.045,53.5481 236.5,54.5C 237.861,56.0284 239.028,57.6951 240,59.5C 240.557,61.5859 239.724,62.9193 237.5,63.5C 235.833,60.8333 234.167,58.1667 232.5,55.5C 232.709,54.914 233.043,54.414 233.5,54C 231.098,53.1859 228.765,53.3526 226.5,54.5C 227.695,56.7513 228.695,59.0846 229.5,61.5C 227.955,62.4519 226.288,62.7852 224.5,62.5C 224.276,60.2133 223.609,58.0466 222.5,56C 222.645,55.228 222.978,54.5613 223.5,54C 220.833,53.3333 218.167,53.3333 215.5,54C 216.347,56.7176 217.347,59.3843 218.5,62C 216.741,62.7975 215.074,62.6309 213.5,61.5C 212.894,59.2906 212.227,57.124 211.5,55C 215.414,54.1034 215.248,53.6034 211,53.5C 209.833,53.6667 208.667,53.8333 207.5,54C 207.833,54.3333 208.167,54.6667 208.5,55C 207.051,58.273 205.051,61.1063 202.5,63.5C 201.328,63.0814 200.328,62.4147 199.5,61.5C 201.086,59.3295 202.42,56.9962 203.5,54.5C 201.955,53.5481 200.288,53.2148 198.5,53.5C 198.5,52.1667 198.5,50.8333 198.5,49.5C 205.167,49.5 211.833,49.5 218.5,49.5C 218.5,48.1667 218.5,46.8333 218.5,45.5C 212.833,45.5 207.167,45.5 201.5,45.5C 201.5,44.5 201.5,43.5 201.5,42.5C 207.167,42.5 212.833,42.5 218.5,42.5C 218.5,41.5 218.5,40.5 218.5,39.5C 213.167,39.5 207.833,39.5 202.5,39.5C 202.5,33.5 202.5,27.5 202.5,21.5 Z M 206.5,25.5 C 207.873,25.3433 209.207,25.51 210.5,26C 208.842,26.7253 208.342,27.892 209,29.5C 210.041,31.5852 211.541,33.2519 213.5,34.5C 214.672,34.0814 215.672,33.4147 216.5,32.5C 215.197,30.0629 213.53,27.8962 211.5,26C 213.81,25.5034 216.143,25.3367 218.5,25.5C 218.5,28.8333 218.5,32.1667 218.5,35.5C 214.5,35.5 210.5,35.5 206.5,35.5C 206.5,32.1667 206.5,28.8333 206.5,25.5 Z M 222.5,25.5 C 224.604,25.2011 226.604,25.5344 228.5,26.5C 226.774,28.2279 225.441,30.2279 224.5,32.5C 227.251,35.0547 226.584,36.0547 222.5,35.5C 222.5,32.1667 222.5,28.8333 222.5,25.5 Z M 230.5,26.5 C 231.209,25.596 232.209,25.2627 233.5,25.5C 233.5,28.8333 233.5,32.1667 233.5,35.5C 231.473,35.6621 229.473,35.4955 227.5,35C 229.181,32.656 230.848,30.3227 232.5,28C 232.164,26.9701 231.497,26.4701 230.5,26.5 Z"/></g>
<g><path style="opacity:0.819" fill="#000000" d="M 152.5,22.5 C 165.833,22.5 179.167,22.5 192.5,22.5C 192.5,24.1667 192.5,25.8333 192.5,27.5C 189.5,27.5 186.5,27.5 183.5,27.5C 183.5,31.5 183.5,35.5 183.5,39.5C 187.167,39.5 190.833,39.5 194.5,39.5C 194.5,40.8333 194.5,42.1667 194.5,43.5C 190.833,43.5 187.167,43.5 183.5,43.5C 183.5,49.8333 183.5,56.1667 183.5,62.5C 182.167,62.5 180.833,62.5 179.5,62.5C 179.5,56.1667 179.5,49.8333 179.5,43.5C 175.154,43.3343 170.821,43.501 166.5,44C 166.062,52.2829 162.395,58.7829 155.5,63.5C 153.998,62.9169 152.665,62.0836 151.5,61C 158.031,56.9747 161.364,51.1414 161.5,43.5C 157.833,43.5 154.167,43.5 150.5,43.5C 150.5,42.1667 150.5,40.8333 150.5,39.5C 154.167,39.5 157.833,39.5 161.5,39.5C 161.5,35.5 161.5,31.5 161.5,27.5C 158.5,27.5 155.5,27.5 152.5,27.5C 152.5,25.8333 152.5,24.1667 152.5,22.5 Z M 166.5,27.5 C 170.833,27.5 175.167,27.5 179.5,27.5C 179.5,31.5 179.5,35.5 179.5,39.5C 175.167,39.5 170.833,39.5 166.5,39.5C 166.5,35.5 166.5,31.5 166.5,27.5 Z"/></g>
<g><path style="opacity:0.797" fill="#000000" d="M 91.5,23.5 C 92.8333,23.5 94.1667,23.5 95.5,23.5C 95.186,33.2604 92.186,42.0938 86.5,50C 90.4785,53.6556 94.8119,56.8222 99.5,59.5C 98.9169,61.0016 98.0836,62.3349 97,63.5C 92.2327,60.5325 87.7327,57.1991 83.5,53.5C 78.7471,57.7064 73.4138,60.5398 67.5,62C 66.9781,61.4387 66.6448,60.772 66.5,60C 71.2071,56.9776 75.5404,53.4776 79.5,49.5C 74.3571,42.2243 71.1904,34.2243 70,25.5C 71.3333,24.1667 72.6667,24.1667 74,25.5C 75.318,33.1328 78.4847,39.7994 83.5,45.5C 88.3357,38.9962 91.0023,31.6629 91.5,23.5 Z"/></g>
<g><path style="opacity:0.791" fill="#000000" d="M 121.5,23.5 C 129.833,23.5 138.167,23.5 146.5,23.5C 146.5,24.8333 146.5,26.1667 146.5,27.5C 143.833,27.5 141.167,27.5 138.5,27.5C 138.666,37.8387 138.5,48.172 138,58.5C 137.626,59.4162 137.126,60.2496 136.5,61C 132.789,61.8253 129.122,61.6586 125.5,60.5C 125.167,59.8333 124.833,59.1667 124.5,58.5C 127.428,57.5159 130.428,57.1826 133.5,57.5C 133.5,47.5 133.5,37.5 133.5,27.5C 129.5,27.5 125.5,27.5 121.5,27.5C 121.5,26.1667 121.5,24.8333 121.5,23.5 Z"/></g>
<g><path style="opacity:0.841" fill="#000000" d="M 248.5,23.5 C 252.833,23.5 257.167,23.5 261.5,23.5C 261.5,34.8333 261.5,46.1667 261.5,57.5C 258.5,57.5 255.5,57.5 252.5,57.5C 252.5,58.5 252.5,59.5 252.5,60.5C 251.167,60.5 249.833,60.5 248.5,60.5C 248.5,48.1667 248.5,35.8333 248.5,23.5 Z M 252.5,28.5 C 254.167,28.5 255.833,28.5 257.5,28.5C 257.5,31.8333 257.5,35.1667 257.5,38.5C 255.833,38.5 254.167,38.5 252.5,38.5C 252.5,35.1667 252.5,31.8333 252.5,28.5 Z M 252.5,42.5 C 254.167,42.5 255.833,42.5 257.5,42.5C 257.5,46.1667 257.5,49.8333 257.5,53.5C 255.833,53.5 254.167,53.5 252.5,53.5C 252.5,49.8333 252.5,46.1667 252.5,42.5 Z"/></g>
<g><path style="opacity:0.716" fill="#000000" d="M 55.5,34.5 C 58.8333,34.5 62.1667,34.5 65.5,34.5C 65.3339,40.1764 65.5006,45.8431 66,51.5C 67.586,50.624 69.086,49.624 70.5,48.5C 71.3567,49.7357 72.0234,51.069 72.5,52.5C 69.1667,55.1667 65.8333,57.8333 62.5,60.5C 61.1667,59.8333 60.1667,58.8333 59.5,57.5C 60.4596,51.2266 60.7929,44.8933 60.5,38.5C 58.8333,38.5 57.1667,38.5 55.5,38.5C 55.5,37.1667 55.5,35.8333 55.5,34.5 Z"/></g>
<g><path style="opacity:0.832" fill="#000000" d="M 343.5,38.5 C 350.5,38.5 357.5,38.5 364.5,38.5C 364.5,39.8333 364.5,41.1667 364.5,42.5C 361.833,42.5 359.167,42.5 356.5,42.5C 356.5,46.1667 356.5,49.8333 356.5,53.5C 359.86,53.3841 363.193,53.0508 366.5,52.5C 366.773,54.451 366.107,55.951 364.5,57C 356.846,58.0171 349.179,58.8504 341.5,59.5C 341.5,58.1667 341.5,56.8333 341.5,55.5C 344.86,55.3841 348.193,55.0508 351.5,54.5C 351.5,50.5 351.5,46.5 351.5,42.5C 348.833,42.5 346.167,42.5 343.5,42.5C 343.5,41.1667 343.5,39.8333 343.5,38.5 Z"/></g>
<g><path style="opacity:0.865" fill="#000000" d="M 265.5,42.5 C 272.5,42.5 279.5,42.5 286.5,42.5C 286.5,49.5 286.5,56.5 286.5,63.5C 285.167,63.5 283.833,63.5 282.5,63.5C 282.5,62.5 282.5,61.5 282.5,60.5C 278.167,60.5 273.833,60.5 269.5,60.5C 269.5,61.5 269.5,62.5 269.5,63.5C 268.167,63.5 266.833,63.5 265.5,63.5C 265.5,56.5 265.5,49.5 265.5,42.5 Z M 269.5,45.5 C 273.833,45.5 278.167,45.5 282.5,45.5C 282.5,46.8333 282.5,48.1667 282.5,49.5C 278.167,49.5 273.833,49.5 269.5,49.5C 269.5,48.1667 269.5,46.8333 269.5,45.5 Z M 269.5,53.5 C 273.833,53.5 278.167,53.5 282.5,53.5C 282.5,54.8333 282.5,56.1667 282.5,57.5C 278.167,57.5 273.833,57.5 269.5,57.5C 269.5,56.1667 269.5,54.8333 269.5,53.5 Z"/></g>
</svg>
